<svg xmlns="http://www.w3.org/2000/svg" viewBox="0 0 1700.79 1700.79"><defs><style>.cls-1{fill:#db0032;}.cls-2{fill:#0067b1;}.cls-3{fill:#fec800;}.cls-4{fill:#3d3c3b;}</style></defs><g id="Layer_1" data-name="Layer 1"><path class="cls-1" d="M520.22,865.16q.56,1.25,1,2.31a2.81,2.81,0,0,0,5.33-.28c.08-.33.15-.64.2-1,11.63-67.7,33.21-194.76,40.36-241.56,8-52.25.48-65.69-.57-67.26l-.53-.35.07-.21c-9.1-11.55-30.43,0-30.64.13L405.86,638.34Z"/><path class="cls-2" d="M510.2,870.44,433.57,716.35l-37-74.91C358.81,758,348.44,970.7,348.44,970.7c7.27,2.39,15.06,2.5,21.91-1.14l.49-.26,127.53-68.85c7.8-4.3,13.85-12.59,13.85-22.13a19.13,19.13,0,0,0-2-7.88"/><path class="cls-3" d="M338.46,965.6s7.6-220.82,52-336.53l-28.17-57a28,28,0,0,0-16.35-14.26,28.52,28.52,0,0,0-8.12-1.46,28.13,28.13,0,0,0-13.51,3l-130.09,65.4a28.21,28.21,0,0,0-12.46,38L332,957.46a26.72,26.72,0,0,0,6.49,8.14"/><path class="cls-4" d="M648.63,617a11.77,11.77,0,0,1,11.78-11.77H796.8c60,0,100.54,19.4,100.54,78.06,0,30.86-15.44,52.47-42.77,65.71,38.36,11,57.76,40.57,57.76,79.81,0,63.94-54.23,91.28-111.12,91.28H660.32a11.69,11.69,0,0,1-11.69-11.69Zm69.23,110.6a5.08,5.08,0,0,0,5.08,5.07h65c24.26,0,42.34-11,42.34-37.48,0-30-22.94-36.16-47.63-36.16H725.85a8,8,0,0,0-8,8Zm0,133.61a5.09,5.09,0,0,0,5.08,5.08h69c27.32,0,51.15-8.82,51.15-41.46,0-32.18-20.29-45-49.84-45H722.94a5.08,5.08,0,0,0-5.08,5.07Z"/><path class="cls-4" d="M949.42,618.89a13.65,13.65,0,0,1,13.64-13.65h122.18c81.58,0,142.87,51.16,142.87,155.67,0,91.27-46.74,159.19-142.87,159.19H961.49A12.07,12.07,0,0,1,949.42,908ZM1018.65,854a7.89,7.89,0,0,0,7.89,7.89h53.85c40.12,0,78.49-24.7,78.49-94.37,0-63.5-22.05-104.07-90.85-104.07h-41.49a7.89,7.89,0,0,0-7.89,7.89Z"/><path class="cls-4" d="M1413.5,920.1h-60.25a12.28,12.28,0,0,1-11.69-8.49l-94.3-290.22A12.34,12.34,0,0,1,1259,605.24h46a11.61,11.61,0,0,1,11.07,8.1l67.54,213.28h.88l68.42-213.32a11.61,11.61,0,0,1,11.06-8.06h45.86a12.34,12.34,0,0,1,11.72,16.22l-96.33,290.22a12.3,12.3,0,0,1-11.67,8.42"/><path class="cls-4" d="M275.23,1147.76a4.35,4.35,0,0,1-3.24-1.17,4.54,4.54,0,0,1-1.17-3.37V1061a4.56,4.56,0,0,1,1.17-3.37,4.38,4.38,0,0,1,3.24-1.16h30.43a40.45,40.45,0,0,1,15.93,2.78,22,22,0,0,1,10,8.1,23.28,23.28,0,0,1,3.49,13.08,20.5,20.5,0,0,1-5.11,14.24,24.66,24.66,0,0,1-13.8,7.52v-1.82q9.72,1.05,15.35,6.93c3.76,3.94,5.63,9.13,5.63,15.61q0,12.18-7.77,18.52t-22,6.35Zm3.36-49.61h26.17q10.88,0,16.57-4.47t5.7-13q0-8.55-5.7-13t-16.57-4.46H278.59Zm0,42.87H306.7q11.26,0,16.84-4.46T329.1,1123q0-9.33-5.56-13.73t-16.84-4.4H278.59Z"/><path class="cls-4" d="M375.6,1148.8a25.26,25.26,0,0,1-11.33-2.47,20,20,0,0,1-7.9-6.73,16.6,16.6,0,0,1-2.92-9.59q0-7,3.5-11t11.79-5.63q8.28-1.62,22.79-1.62h5.57v5.83h-5.44a132.5,132.5,0,0,0-18.2,1q-6.54,1-9.13,3.56a9.8,9.8,0,0,0-2.59,7.25,12.13,12.13,0,0,0,4,9.46q4,3.63,10.88,3.63a18,18,0,0,0,9.78-2.66,19,19,0,0,0,6.67-7.32,22.38,22.38,0,0,0,2.46-10.61v-14.77c0-5.79-1.17-10-3.5-12.63s-6.05-4-11.14-4a34.73,34.73,0,0,0-9.52,1.3,46.9,46.9,0,0,0-9.78,4.14,3.58,3.58,0,0,1-2.52.52,2.81,2.81,0,0,1-1.69-1,4.26,4.26,0,0,1-.77-1.87,3.39,3.39,0,0,1,.32-2.14,3.89,3.89,0,0,1,1.81-1.69,49.35,49.35,0,0,1,11.08-4.46,42.81,42.81,0,0,1,10.94-1.49q7.65,0,12.63,2.59a16.2,16.2,0,0,1,7.38,7.77q2.4,5.17,2.4,13.34v37a4.42,4.42,0,0,1-.91,3,3.41,3.41,0,0,1-2.72,1,3.85,3.85,0,0,1-2.85-1,4,4,0,0,1-1-3V1132.6H397a20.87,20.87,0,0,1-4.14,8.68,19.68,19.68,0,0,1-7.38,5.57A24.09,24.09,0,0,1,375.6,1148.8Z"/><path class="cls-4" d="M427.79,1148.53a3.62,3.62,0,0,1-4-4v-56.34a4.19,4.19,0,0,1,1-3.11,4,4,0,0,1,3-1,3.65,3.65,0,0,1,2.79,1,4.39,4.39,0,0,1,1,3.11v12.17l-1.42-.77a21.51,21.51,0,0,1,8.87-11.79,29.22,29.22,0,0,1,26.94-1.36,16.64,16.64,0,0,1,7.44,8.09,33.06,33.06,0,0,1,2.47,13.6v36.4a4,4,0,0,1-1,3,3.85,3.85,0,0,1-2.85,1,3.62,3.62,0,0,1-4-4v-35.75q0-9.45-3.75-13.79t-11.92-4.34q-9.31,0-15,5.76t-5.63,15.48v32.64C431.68,1147.2,430.38,1148.53,427.79,1148.53Z"/><path class="cls-4" d="M522,1148.8a29.4,29.4,0,0,1-15.8-4.09A26.82,26.82,0,0,1,496,1133.19a39.73,39.73,0,0,1-3.56-17.29,41.45,41.45,0,0,1,2-13.41,27.87,27.87,0,0,1,5.83-10,25.84,25.84,0,0,1,9.32-6.41,33.07,33.07,0,0,1,22.22-.65,25.15,25.15,0,0,1,9.19,5.38,3.5,3.5,0,0,1,1.17,1.81,3.21,3.21,0,0,1-.13,2,3.55,3.55,0,0,1-1.17,1.56,3.42,3.42,0,0,1-1.88.64,3.11,3.11,0,0,1-2.26-1,21.38,21.38,0,0,0-7.32-4.08,25.24,25.24,0,0,0-7.19-1.1,23.78,23.78,0,0,0-9.32,1.69,17.92,17.92,0,0,0-6.8,4.92,21.54,21.54,0,0,0-4.21,8,37.51,37.51,0,0,0-1.43,10.82q0,12.17,5.64,19.1t16.12,6.93a25.24,25.24,0,0,0,7.19-1.1,21.06,21.06,0,0,0,7.32-4.08,3.15,3.15,0,0,1,2.26-1,3.35,3.35,0,0,1,1.88.65,3,3,0,0,1,1.1,1.55,3.52,3.52,0,0,1,.07,2,3.56,3.56,0,0,1-1.17,1.81,23.1,23.1,0,0,1-9.06,5.31A33.3,33.3,0,0,1,522,1148.8Z"/><path class="cls-4" d="M579.59,1148.8a28.36,28.36,0,0,1-15.28-4,26.73,26.73,0,0,1-10-11.27,38.59,38.59,0,0,1-3.56-17.23,41.62,41.62,0,0,1,2-13.34,29.7,29.7,0,0,1,5.83-10.29,25.09,25.09,0,0,1,9.2-6.61,30.19,30.19,0,0,1,11.85-2.26,28.71,28.71,0,0,1,15.41,4,26.84,26.84,0,0,1,10,11.33,38.87,38.87,0,0,1,3.56,17.16,42,42,0,0,1-2,13.47,29,29,0,0,1-5.83,10.24,25.58,25.58,0,0,1-9.13,6.54A30.41,30.41,0,0,1,579.59,1148.8Zm0-6.61a20.29,20.29,0,0,0,11.2-3,19.34,19.34,0,0,0,7.25-8.88,34.9,34.9,0,0,0,2.53-14q0-12.3-5.63-19t-15.35-6.74a20,20,0,0,0-11.08,3,19.43,19.43,0,0,0-7.25,8.8,34.66,34.66,0,0,0-2.52,13.92q0,12.43,5.69,19.17T579.59,1142.19Z"/><path class="cls-4" d="M682,1148.8a27,27,0,0,1-14.7-4,26,26,0,0,1-9.71-11.26,45.51,45.51,0,0,1-.06-34.52,25.94,25.94,0,0,1,9.64-11.27,27,27,0,0,1,14.83-4,24.85,24.85,0,0,1,15,4.53,21.61,21.61,0,0,1,8.29,12.18h-1.43v-40.8a3.53,3.53,0,0,1,3.89-4,4.19,4.19,0,0,1,3,1,4,4,0,0,1,1,3v84.83a4,4,0,0,1-1,3,3.85,3.85,0,0,1-2.85,1,3.62,3.62,0,0,1-4-4v-13.34l1.43.91a21.62,21.62,0,0,1-8.29,12.17A24.79,24.79,0,0,1,682,1148.8Zm1-6.61a20.29,20.29,0,0,0,11.2-3,19.35,19.35,0,0,0,7.26-8.88,35.08,35.08,0,0,0,2.52-14q0-12.3-5.63-19t-15.35-6.74a20,20,0,0,0-11.07,3,19.39,19.39,0,0,0-7.26,8.8,34.66,34.66,0,0,0-2.52,13.92q0,12.43,5.7,19.17T683.07,1142.19Z"/><path class="cls-4" d="M759.88,1148.8a33.89,33.89,0,0,1-16.71-3.89,26.22,26.22,0,0,1-10.75-11.14,41.2,41.2,0,0,1,0-34.39,27.94,27.94,0,0,1,25.77-15.6,27.71,27.71,0,0,1,11.21,2.13,23.31,23.31,0,0,1,8.28,6.09,27.12,27.12,0,0,1,5.25,9.58,41.57,41.57,0,0,1,1.81,12.76,3.53,3.53,0,0,1-1,2.72,3.71,3.71,0,0,1-2.65.91H734.36v-5.83h45.46l-2.07,1.68a33.15,33.15,0,0,0-2.2-12.76A17.53,17.53,0,0,0,769,1093a19.08,19.08,0,0,0-10.69-2.85,21,21,0,0,0-12,3.31,20.11,20.11,0,0,0-7.39,9.06,33.57,33.57,0,0,0-2.46,13.28v.64q0,12.43,6.09,19.11t17.1,6.67a32.89,32.89,0,0,0,9.26-1.3,28.31,28.31,0,0,0,8.74-4.4,4.43,4.43,0,0,1,2.52-.91,3.35,3.35,0,0,1,2.08.65,3.28,3.28,0,0,1,1.16,1.62,2.88,2.88,0,0,1-.13,2.07,4.66,4.66,0,0,1-1.75,2,28.59,28.59,0,0,1-10,5.12A40.54,40.54,0,0,1,759.88,1148.8Z"/><path class="cls-4" d="M869.19,1148.8a9.72,9.72,0,0,1-5.77-1.63,11.44,11.44,0,0,1-3.69-4.85l-33.8-75.9a8.68,8.68,0,0,1-.78-5.7,6.6,6.6,0,0,1,2.72-3.88,8.5,8.5,0,0,1,4.93-1.43q3.75,0,5.63,1.62a12.32,12.32,0,0,1,3.17,4.86l30.7,71.1h-5.58l30.57-71.23a13.41,13.41,0,0,1,3.37-4.73,8.27,8.27,0,0,1,5.44-1.62,7.6,7.6,0,0,1,4.73,1.43,6.36,6.36,0,0,1,2.4,3.88,9.53,9.53,0,0,1-.91,5.7l-33.8,75.9a12,12,0,0,1-3.57,4.85A9.29,9.29,0,0,1,869.19,1148.8Z"/><path class="cls-4" d="M946.77,1149.05q-10.75,0-18.52-4a28.54,28.54,0,0,1-12-11.4,34.67,34.67,0,0,1-4.21-17.48,35,35,0,0,1,4.08-17.23,29.9,29.9,0,0,1,11.27-11.59,34.16,34.16,0,0,1,28.49-2,25.48,25.48,0,0,1,9.2,6.35,27.81,27.81,0,0,1,5.82,10,41,41,0,0,1,2,13.28,4.2,4.2,0,0,1-1.62,3.56,7.46,7.46,0,0,1-4.59,1.23H925.14v-9.32h36.4l-2.07,1.94a25.08,25.08,0,0,0-1.75-10,13.62,13.62,0,0,0-5.06-6.16,14.86,14.86,0,0,0-8.22-2.13,16.37,16.37,0,0,0-9.26,2.53,15.87,15.87,0,0,0-5.83,7.12,27.16,27.16,0,0,0-2,10.94v.91q0,10.62,5,15.86t14.7,5.25a39.2,39.2,0,0,0,7.58-.84,27.61,27.61,0,0,0,8-2.92,8.29,8.29,0,0,1,4.79-1.36,5.06,5.06,0,0,1,3.31,1.49,5.58,5.58,0,0,1,1.48,3.17,6.4,6.4,0,0,1-.71,3.83,8.4,8.4,0,0,1-3.3,3.36,33.5,33.5,0,0,1-10.42,4.21A48.79,48.79,0,0,1,946.77,1149.05Z"/><path class="cls-4" d="M993.78,1148.8a7.92,7.92,0,0,1-5.95-2.14,8.46,8.46,0,0,1-2.08-6.15v-49q0-4,2.08-6.09a9.23,9.23,0,0,1,11.65,0q2.07,2.07,2.07,6.09v8.8l-1.42-3.24a21.14,21.14,0,0,1,8.87-10.42,26.39,26.39,0,0,1,13.67-3.56q7.64,0,12.56,2.85a17.55,17.55,0,0,1,7.38,8.61q2.46,5.76,2.46,14.57v31.35a8.5,8.5,0,0,1-2.07,6.15,7.94,7.94,0,0,1-6,2.14,8.15,8.15,0,0,1-6-2.14,8.36,8.36,0,0,1-2.14-6.15v-30.57q0-7.38-2.78-10.75c-1.86-2.24-4.73-3.37-8.61-3.37q-7.12,0-11.34,4.47t-4.21,11.85v28.37Q1001.94,1148.79,993.78,1148.8Z"/><path class="cls-4" d="M1092.74,1149.05q-10.76,0-18.53-4a28.6,28.6,0,0,1-12-11.4,34.77,34.77,0,0,1-4.2-17.48,35.14,35.14,0,0,1,4.07-17.23,30,30,0,0,1,11.27-11.59,34.18,34.18,0,0,1,28.5-2,25.35,25.35,0,0,1,9.19,6.35,27.83,27.83,0,0,1,5.83,10,41,41,0,0,1,2,13.28,4.2,4.2,0,0,1-1.62,3.56,7.47,7.47,0,0,1-4.6,1.23h-41.57v-9.32h36.39l-2.07,1.94a24.9,24.9,0,0,0-1.75-10,13.6,13.6,0,0,0-5-6.16,14.87,14.87,0,0,0-8.23-2.13,16.39,16.39,0,0,0-9.26,2.53,15.85,15.85,0,0,0-5.82,7.12,27,27,0,0,0-2,10.94v.91q0,10.62,5,15.86t14.7,5.25a39.12,39.12,0,0,0,7.58-.84,27.5,27.5,0,0,0,8-2.92,8.34,8.34,0,0,1,4.8-1.36,5,5,0,0,1,3.3,1.49,5.59,5.59,0,0,1,1.49,3.17,6.47,6.47,0,0,1-.71,3.83,8.47,8.47,0,0,1-3.3,3.36,33.56,33.56,0,0,1-10.43,4.21A48.7,48.7,0,0,1,1092.74,1149.05Z"/><path class="cls-4" d="M1134.83,1147.76a6.55,6.55,0,0,1-4.08-1.23,5.77,5.77,0,0,1-2.14-3.18,8.11,8.11,0,0,1,.07-4.2,10.49,10.49,0,0,1,2.39-4.34l33.55-42.1v3.89h-30.57a6.22,6.22,0,0,1-4.6-1.62,7.06,7.06,0,0,1,0-9,6.36,6.36,0,0,1,4.6-1.55h38.34a8.23,8.23,0,0,1,4.66,1.22,5.82,5.82,0,0,1,2.4,3.18,8,8,0,0,1,.06,4.14,9.12,9.12,0,0,1-2.33,4.14L1143,1139.86v-4.28h32.37q6.23,0,6.22,6.09a6,6,0,0,1-1.62,4.47,6.22,6.22,0,0,1-4.6,1.62Z"/><path class="cls-4" d="M1215.25,1149.05q-7.9,0-13.08-2.91a17.81,17.81,0,0,1-7.7-8.74,36.46,36.46,0,0,1-2.53-14.51v-31.34q0-4.15,2.07-6.16a8.26,8.26,0,0,1,6-2,8.48,8.48,0,0,1,6,2q2.15,2,2.14,6.16v31.6q0,6.74,2.72,10t8.68,3.24a13.86,13.86,0,0,0,10.62-4.47q4.14-4.47,4.14-11.85v-28.49q0-4.15,2.07-6.16a8.27,8.27,0,0,1,6-2,8.52,8.52,0,0,1,6,2q2.13,2,2.13,6.16v49q0,8.28-7.9,8.29a7.79,7.79,0,0,1-5.83-2.14,8.5,8.5,0,0,1-2.07-6.15v-9.85l1.81,3.89a21.6,21.6,0,0,1-21.24,14.5Z"/><path class="cls-4" d="M1298.54,1149.05q-10.76,0-18.53-4a28.6,28.6,0,0,1-12-11.4,34.77,34.77,0,0,1-4.2-17.48,35.14,35.14,0,0,1,4.07-17.23,30,30,0,0,1,11.27-11.59,34.18,34.18,0,0,1,28.5-2,25.35,25.35,0,0,1,9.19,6.35,27.83,27.83,0,0,1,5.83,10,41,41,0,0,1,2,13.28,4.2,4.2,0,0,1-1.62,3.56,7.47,7.47,0,0,1-4.6,1.23h-41.57v-9.32h36.39l-2.07,1.94a24.9,24.9,0,0,0-1.75-10,13.6,13.6,0,0,0-5-6.16,14.87,14.87,0,0,0-8.23-2.13,16.39,16.39,0,0,0-9.26,2.53,15.85,15.85,0,0,0-5.82,7.12,27,27,0,0,0-2,10.94v.91q0,10.62,5,15.86t14.7,5.25a39.12,39.12,0,0,0,7.58-.84,27.5,27.5,0,0,0,8-2.92,8.34,8.34,0,0,1,4.8-1.36,5,5,0,0,1,3.3,1.49,5.59,5.59,0,0,1,1.49,3.17,6.47,6.47,0,0,1-.71,3.83,8.47,8.47,0,0,1-3.3,3.36,33.56,33.56,0,0,1-10.43,4.21A48.7,48.7,0,0,1,1298.54,1149.05Z"/><path class="cls-4" d="M1359.15,1149.05q-10.76,0-16.19-6.15t-5.44-18.07v-61.26c0-2.68.69-4.7,2.07-6.08a8,8,0,0,1,6-2.08,8.25,8.25,0,0,1,6,2.08,8.1,8.1,0,0,1,2.14,6.08v60.49q0,6,2.52,8.8a9.11,9.11,0,0,0,7.19,2.85q1,0,1.95-.06c.6,0,1.2-.11,1.81-.2a2.16,2.16,0,0,1,2.46,1c.43.83.64,2.49.64,5a8.57,8.57,0,0,1-1.29,5,5.87,5.87,0,0,1-4.27,2.2c-.87.09-1.78.18-2.73.26S1360.1,1149.05,1359.15,1149.05Z"/><path class="cls-4" d="M1399.69,1149.05a27.39,27.39,0,0,1-12.24-2.65,21.17,21.17,0,0,1-8.42-7.19,17.92,17.92,0,0,1-3-10.23c0-4.66,1.21-8.36,3.63-11.07s6.35-4.69,11.79-5.9,12.73-1.81,21.88-1.81h6.48v9.32h-6.35a83.48,83.48,0,0,0-12.82.78c-3.19.52-5.46,1.41-6.8,2.65a6.85,6.85,0,0,0-2,5.25,9.08,9.08,0,0,0,3,7q3,2.71,8.29,2.72a14.29,14.29,0,0,0,7.58-2,14.54,14.54,0,0,0,5.24-5.51,16.18,16.18,0,0,0,2-8v-14.89q0-6.48-2.85-9.33t-9.58-2.85a40,40,0,0,0-8.1.91,42.72,42.72,0,0,0-9.13,3.11,6.26,6.26,0,0,1-4.34.65,4.87,4.87,0,0,1-2.91-2.14,6.41,6.41,0,0,1-1-3.56,7.71,7.71,0,0,1,1-3.82,6.2,6.2,0,0,1,3.49-2.79,59.07,59.07,0,0,1,11.46-3.5,55.61,55.61,0,0,1,10-1q9.33,0,15.35,2.85a19,19,0,0,1,9,8.61q3,5.76,3,14.83v31.09a8.88,8.88,0,0,1-1.94,6.15,7.17,7.17,0,0,1-5.57,2.14,7.35,7.35,0,0,1-5.63-2.14,8.62,8.62,0,0,1-2-6.15v-6.22h1a17.55,17.55,0,0,1-10.23,13A22.07,22.07,0,0,1,1399.69,1149.05Z"/></g></svg>