<?xml version="1.0"?>
<svg width="2560" height="608.29509087" xmlns="http://www.w3.org/2000/svg" xmlns:svg="http://www.w3.org/2000/svg">
 <g class="layer">
  <title>Layer 1</title>
  <path d="m38.26,311.21c7.95,-1.39 16.03,-1.02 24.05,-1.41c27.48,-1.35 54.96,-2.61 82.42,0.48c11.03,1.25 21.89,3.24 32.44,6.6c42.6,13.53 48.78,52.24 39.25,78.14c-6.32,17.19 -18.68,29.22 -35.97,37.63c4.29,2.21 8.31,4.21 12.27,6.32c23.94,12.75 35.88,35.22 32.54,61.2c-4.75,36.95 -27.3,60.12 -66.32,68.52c-20.56,4.43 -41.41,5.29 -62.33,4.94c-19.45,-0.32 -38.92,-0.11 -58.34,-1.27l0,-261.13zm51.6,183.07l0.09,0c0,10.99 0.06,21.99 -0.05,32.98c-0.02,2.52 0.43,3.91 3.56,4.02c4.81,0.17 9.59,1.05 14.4,1.24c13.28,0.51 26.39,-0.47 38.7,-5.75c15.6,-6.69 22.73,-18.54 22.07,-36.24c-0.5,-13.43 -9.19,-23.67 -24.68,-29.01c-16.78,-5.78 -34.04,-5.69 -51.46,-3.68c-2.9,0.34 -2.67,2.05 -2.67,3.92c0.03,10.83 0.03,21.68 0.03,32.51zm1.86,-108.54l-1.54,0c0,9.61 0.1,19.22 -0.07,28.83c-0.04,2.58 0.43,3.7 3.5,4.05c6.09,0.68 12.17,1.04 18.29,0.99c13.03,-0.1 25.68,-1.91 36.93,-8.69c12.41,-7.49 17.22,-18.61 15.67,-32.15c-1.57,-13.75 -10.34,-21.81 -24,-25.53c-14.89,-4.05 -29.88,-3.11 -44.96,-1.15c-3.28,0.42 -3.87,1.72 -3.85,4.36c0.09,9.77 0.04,19.53 0.04,29.29zm2296.95,-357.66c6.1,1.9 12.53,1.59 18.79,2.49c9.15,1.3 16.07,5.46 20.29,13.11c7.9,14.31 15.11,28.94 20.83,44.17c2.42,6.46 0.17,9.22 -8.03,9.73c-9.31,0.59 -18.66,0.69 -27.99,0.98c-51.84,1.65 -103.3,6.75 -154.53,14.4c-47.53,7.1 -94.21,17.62 -140.5,29.86c-4.47,1.18 -9.06,2.14 -13.67,2.64c-10.44,1.13 -15.46,-1.62 -19.95,-10.71c-4.04,-8.16 -6.65,-16.82 -9.6,-25.34c-2.71,-7.81 -5.44,-15.62 -7.77,-23.54c-2.58,-8.78 0,-14.4 8.54,-18.62c10.62,-5.24 22.27,-7.8 33.73,-10.7c41.1,-10.39 83.05,-16.4 125.2,-21.31c21.4,-2.49 42.8,-4.88 64.31,-6.28c0.68,-0.05 1.25,-0.18 1.47,-0.88l23.19,0c7.08,1.52 14.17,1.51 21.25,0l22.22,0c5.15,1.49 10.31,1.49 15.46,0c2.25,-0.02 4.5,-0.02 6.76,-0.02z" fill="#23307d" id="svg_1"/>
  <path d="m2344.24,28.09c-7.08,1.51 -14.17,1.52 -21.25,0l21.25,0zm37.68,0c-5.15,1.49 -10.31,1.49 -15.46,0l15.46,0z" fill="#23307d" id="svg_2"/>
  <path d="m2000.05,221.13c-0.37,-9.73 4.2,-16.71 12.93,-21.47c11.51,-6.28 24.13,-9.97 36.59,-14.02c60.1,-19.56 121.25,-35.43 183.76,-46.47c48.71,-8.61 97.64,-15.74 147.08,-19.11c24.71,-1.69 49.48,-2.78 74.29,-1.33c15.85,0.93 21.93,4.89 26.93,19.06c5.41,15.34 12.34,30.1 18.53,45.14c5.21,12.64 2.82,17.01 -11.2,20.38c-16.85,4.05 -34.11,6.04 -51.23,8.71c-40.14,6.24 -79.97,13.93 -119.61,22.53c-55.59,12.05 -111.06,24.63 -165.78,39.96c-31.59,8.85 -62.76,18.92 -93.6,29.89a88.89,84.33 0 0 1 -17.68,4.41c-10.17,1.48 -16.73,-1.59 -21.03,-10.6c-4.07,-8.51 -5.89,-17.71 -8.39,-26.68c-3.97,-14.29 -8.4,-28.48 -10.73,-43.13c-0.39,-2.42 -0.57,-4.85 -0.85,-7.27z" fill="#fec803" id="svg_3"/>
  <path d="m2232.24,418.51c-10.71,0.4 -17.65,-4.8 -22.12,-13.46c-4.53,-8.8 -7.27,-18.23 -10.06,-27.61c-6.16,-20.73 -16.59,-39.96 -23.49,-60.43c-0.39,-1.16 -0.88,-2.29 -1.28,-3.45c-4.79,-14.05 0.17,-24.35 15,-28.75c13.93,-4.13 28.21,-7.23 42.35,-10.73c45.39,-11.26 90.83,-22.26 136.63,-31.92c28.38,-5.99 56.96,-11.16 85.46,-16.64c2.99,-0.58 6.06,-0.83 9.11,-0.98c9.55,-0.48 16.31,3.49 20.56,11.61c5.59,10.69 9.28,22.06 13.24,33.32c3.85,10.97 8.17,21.82 10.96,33.12c2.94,11.95 0.46,17.37 -11.24,22.46c-19.86,8.65 -40.68,15.03 -61.03,22.54c-57.32,21.14 -114.71,42.09 -172.09,63.06c-10.34,3.79 -20.75,7.44 -32.01,7.86z" fill="#e9241d" id="svg_4"/>
  <path d="m1386.78,403.56c5.5,-6.03 10.04,-10.98 14.55,-15.96c16.03,-17.7 36.84,-23.34 60.61,-22.1c20.52,1.08 34.53,10.93 43.75,27.83c1.46,2.67 2.5,5.61 5.29,7.52c2.12,1.45 3.54,1.97 5.23,-0.68c1.9,-2.99 4.38,-5.65 6.67,-8.4c12.44,-15.02 29.03,-22.58 48.8,-24.7c9.49,-1.02 18.91,-1.64 28.3,0.44c22.1,4.89 36.16,19.26 40.02,40.78c4,22.36 4.64,44.96 4.66,67.54c0.03,30.99 -0.65,61.98 -0.87,92.97c-0.02,3.17 -1.1,4.15 -4.32,4.38a311.34,295.37 0 0 1 -47.27,0.02c-3.27,-0.23 -4.32,-1.15 -4.13,-4.4c2.15,-38.44 2.39,-76.91 1.68,-115.38c-0.14,-7.32 -0.5,-14.66 -1.15,-21.95c-1.4,-15.59 -13.34,-24.09 -29.51,-20.98c-11.13,2.14 -20.26,7.14 -26.53,16.63c-9.72,14.7 -15.31,30.45 -15.3,47.89c0.01,31 -0.09,61.99 0.09,92.98c0.02,3.84 -1.05,4.82 -5.04,4.76c-14.48,-0.24 -28.97,-0.23 -43.46,0c-4.07,0.06 -5.48,-0.69 -5.43,-4.94c0.42,-37.86 -0.39,-75.73 0.68,-113.58c0.25,-9.02 -0.18,-18.02 -2.59,-26.8c-4.19,-15.28 -14.99,-21.1 -30.99,-16.77c-12.39,3.35 -20.67,11.4 -26.86,21.64c-7.18,11.91 -10.18,24.94 -10.85,38.51c-1.57,32.35 -2.06,64.7 -0.14,97.04c0.24,4.04 -0.93,5.26 -5.09,5.35c-15.78,0.34 -31.54,0.02 -47.31,-0.53c-3.13,-0.11 -3.21,-1.54 -3.2,-3.75c0.06,-14.66 0.04,-29.31 0.05,-43.97c0.02,-46.26 0.08,-92.53 -0.02,-138.78c-0.01,-3.2 0.82,-4.83 4.19,-5.93c14.02,-4.58 28.18,-8.37 43.08,-9.37c3.79,-0.26 4.61,0.77 4.3,4.23c-0.81,9.05 -1.22,18.14 -1.86,28.47zm335.73,0.73c1.84,-0.37 2.42,-1.76 3.21,-2.81c22.21,-29.47 71.53,-33.2 99.99,-11.1c10.73,8.33 17.31,19.64 21.34,32.09c10.33,31.93 9.83,63.92 -2.15,95.25c-11.92,31.18 -37.48,48.23 -70.45,55.08c-30.36,6.32 -61.05,5.77 -91.4,-1.31c-12.69,-2.96 -12.65,-3.08 -12.64,-15.19c0.06,-83.21 0.14,-166.43 0.08,-249.64c0,-3.79 1.22,-5.66 4.82,-7.1c14.85,-5.94 30.57,-8.12 46.34,-10.2c2.99,-0.39 2.59,1.47 2.71,3.03c1.4,16.75 1.85,33.54 1.08,50.34c-0.95,20.42 -1.94,40.85 -2.94,61.56zm77.73,69.31c-0.48,-13.06 -1.95,-26.35 -7.6,-38.93c-4.91,-10.93 -15.58,-17.21 -27.94,-16.44c-15.88,1 -32.03,14.35 -35.65,30.5c-5.85,26.11 -7.13,52.59 -5.86,79.23c0.24,5.04 1.99,7.74 7.68,7.87c4.15,0.1 8.28,1.09 12.44,1.4c23.99,1.81 42.73,-9.52 51.26,-30.89c4.15,-10.42 5.38,-21.29 5.67,-32.75zm-690.27,2.82c0.34,-22.48 4.53,-45.31 18.29,-65.61c18.62,-27.46 45.46,-41.96 79.75,-43.76c17.64,-0.93 35.06,0.61 51.66,6.9c25.08,9.5 41.61,26.85 49.29,51.16c11.01,34.87 9.04,69.2 -9.19,101.6c-16.4,29.14 -43.31,44.62 -77.35,49.32c-19.93,2.75 -39.38,0.71 -58.33,-6.01c-23.57,-8.35 -39.13,-23.72 -46.81,-46.46c-5.06,-14.98 -7.25,-30.29 -7.31,-47.15zm149.5,-4.65c-0.02,-14.39 -1.76,-25.8 -6.98,-36.5c-5.72,-11.73 -14.15,-20.81 -28.26,-23.32c-17.48,-3.11 -44.46,3.25 -53.56,29.35c-8.09,23.18 -6.17,46.35 3.63,68.74c4.56,10.41 12.77,17.88 24.71,20.79c17.68,4.31 36.24,-2.14 46.75,-16.35c10.05,-13.59 13.36,-29.11 13.7,-42.71zm-451.58,9.73c0.43,-18.71 2.59,-37.15 10.09,-54.64c17.92,-41.81 58.99,-63.5 104.97,-60.17c22.05,1.59 42.13,7.83 59.1,21.85c17.31,14.32 25.44,32.99 28.42,53.99c4.23,29.8 0.31,58.56 -14.83,85.21c-16.98,29.91 -44.31,45.2 -79.63,48.4c-17.2,1.56 -34.14,0.56 -50.43,-5.05c-31.92,-11.01 -48.69,-33.96 -55.37,-64.54c-1.8,-8.26 -2.4,-16.64 -2.32,-25.05zm148.68,-11.65c0,-1.52 0.06,-3.05 -0.01,-4.57c-0.65,-14.59 -3.81,-28.45 -13.81,-40.13c-14.13,-16.51 -37.68,-19.18 -55.59,-6.39c-8.91,6.37 -14.78,14.87 -18.08,24.82c-7.2,21.75 -5.71,43.39 2.32,64.61c3.15,8.32 8.85,15.22 17.07,19.85c17.69,9.97 40.06,5.38 53.42,-10.87c11.46,-13.93 14.4,-30.27 14.68,-47.32zm-592.69,73.77c-8.29,12.99 -20.36,21.25 -34.41,27.23c-19.76,8.4 -39.86,7.99 -59.55,0.42c-28.74,-11.05 -40.62,-42.67 -27.22,-71.13c9.79,-20.78 27.57,-33.22 49.19,-41.4c19.57,-7.41 40.11,-9.68 60.99,-9.53c4.1,0.03 5.8,-0.71 5.28,-4.93c-0.47,-3.92 -0.32,-7.9 -0.94,-11.85c-2.24,-14.16 -10.46,-22.02 -25.35,-24.14c-18.43,-2.61 -36.19,0.05 -53.53,6.06c-6.63,2.3 -13.27,4.56 -19.94,6.76c-2.17,0.71 -3.65,0.87 -3.88,-2.33c-0.89,-12.63 -2.13,-25.25 -3.33,-37.86c-0.16,-1.75 -0.01,-2.87 1.99,-3.46c35.59,-10.54 71.67,-16.33 108.79,-8.61c28.26,5.88 44.15,22.75 48.25,49.87c1.07,7.11 1.61,14.26 1.72,21.44c0.65,42.59 1.22,85.18 2,127.77c0.07,3.85 -1.03,4.85 -5.01,4.78c-14.16,-0.23 -28.33,-0.21 -42.49,0c-3.8,0.05 -4.52,-1.02 -4.18,-4.43c0.8,-8.19 1.13,-16.43 1.64,-24.66zm-74.69,-29.16c-0.03,11.48 5.48,19.07 14.97,20.88c15.17,2.88 28.97,-0.89 39.61,-11.47c10.29,-10.24 13.56,-23.51 14.35,-37.39c0.15,-2.7 -1.13,-3 -3.41,-2.85c-5.13,0.34 -10.28,0.35 -15.39,0.83c-12.19,1.16 -24.17,3.32 -34.93,9.28c-9.14,5.07 -14.86,12.36 -15.2,20.7zm1680.34,-92.84c-1.28,-13.89 -2.5,-27.56 -3.84,-41.23c-0.17,-1.81 0.66,-2.4 2.25,-2.78c32.02,-7.63 64.02,-15.42 97.53,-10.54c8.93,1.3 17.66,3.31 25.97,6.7c22.87,9.35 32.21,27.18 34.49,49.49c2,19.51 0.15,39.07 0.88,58.59c1.07,28.69 1.54,57.39 1.73,86.08c0.03,3.68 -0.8,4.98 -4.96,4.9c-14.32,-0.25 -28.66,-0.18 -42.98,-0.03c-3.23,0.04 -4.09,-0.87 -3.83,-3.89c0.71,-8.06 1.1,-16.14 1.66,-25.01c-2.96,3.75 -4.92,7.39 -8.09,10.09c-24.4,20.84 -52.61,27.51 -84.11,18.88c-19.44,-5.32 -33.81,-24.16 -34.36,-43.35c-0.82,-29.16 12.63,-50.67 39.47,-64.71c16.23,-8.5 33.92,-11.97 52.18,-13.42c8.5,-0.67 16.99,-1.4 25.51,-1.91c2.81,-0.16 3.92,-0.94 3.78,-3.8c-0.3,-5.8 -0.58,-11.57 -1.88,-17.27c-2.36,-10.31 -8.99,-16.72 -19.68,-19.11c-20.26,-4.54 -39.89,-1.88 -59.13,5.01c-7.32,2.65 -14.48,5.82 -22.6,7.29zm86.08,61.76c-12.06,0.16 -28.91,4.03 -43.36,14.57c-12.32,8.98 -12.13,24.09 -0.06,33.37c10.11,7.77 23.77,8.3 36.03,0.93c14.39,-8.65 21.99,-21.35 23.86,-37.34c1.37,-11.64 1.53,-11.63 -16.47,-11.53zm-1562.24,-80.59c2.46,-2.8 5.09,-5.5 7.37,-8.44c12.96,-16.67 30.92,-24.63 52.05,-27.29c9.49,-1.2 18.93,-1.59 28.29,0.52c23.51,5.32 37.32,20.68 40.66,44.95c4.16,30.22 4.07,60.6 3.83,90.98c-0.17,21.68 -0.71,43.35 -0.93,65.04c-0.03,3.05 -0.7,4.23 -4.22,4.18c-15.13,-0.18 -30.27,-0.16 -45.4,-0.01c-3.33,0.04 -4.37,-0.83 -4.34,-4.07c0.39,-37.4 -0.54,-74.82 0.62,-112.21c0.26,-8.56 -0.08,-17.09 -1.66,-25.54c-3.3,-17.66 -15.21,-24.91 -33.57,-20.33c-12.11,3.02 -20.53,10.38 -26.38,20.62c-7.32,12.87 -10.01,26.93 -11.6,41.24c-2.89,25.91 -1.3,51.86 -0.55,77.79c0.18,6.41 0.26,12.82 0.54,19.23c0.1,2.24 -0.37,3.27 -3.09,3.25c-16.42,-0.11 -32.84,-0.09 -49.26,-0.01c-2.46,0.01 -3.65,-0.67 -3.34,-3.12c0.1,-0.75 0.01,-1.52 0.01,-2.29c0,-60.77 0.04,-121.53 -0.13,-182.31c-0.01,-3.94 1.35,-5.55 5.11,-6.64c12.96,-3.74 26.05,-6.66 39.62,-7.48c3.95,-0.24 5.64,0.35 5.42,4.74c-0.44,8.94 -0.14,17.9 -0.14,26.85c0.38,0.12 0.73,0.24 1.08,0.36zm255.12,-34.97c14.39,-0.13 28.52,2.09 42.68,4.14c2.53,0.37 3.95,0.97 3.53,3.98c-1.81,13.01 -3.4,26.04 -4.94,39.08c-0.3,2.54 -1.51,3.06 -3.83,2.49c-6.69,-1.64 -13.48,-2.96 -20.05,-4.95c-27.99,-8.47 -51.5,9.16 -58.6,28.33c-7.77,21.01 -7.92,41.85 -0.23,62.74c6.69,18.18 20.74,26.78 40.71,27.31c9.9,0.27 19.53,-1.14 28.96,-4c13.63,-4.13 13.79,-4.06 15.34,9.27c1.08,9.25 1.78,18.54 2.6,27.82c0.14,1.59 0.62,3.18 -2.07,3.8c-20.3,4.77 -40.55,9.74 -61.73,9.38c-41.53,-0.72 -70.01,-20.54 -81.66,-58.27c-10.94,-35.42 -7.83,-70.13 10.17,-103.06c16.89,-30.9 44.45,-46.33 80.87,-47.94c1.93,-0.08 3.86,-0.09 5.8,-0.13c0.8,-0.02 1.6,0 2.42,0zm339.68,64.23c0,45.2 -0.06,90.39 0.1,135.59c0.01,3.95 -0.85,5.19 -5.23,5.11c-14.8,-0.28 -29.62,-0.2 -44.43,-0.04c-3.32,0.04 -4.33,-0.8 -4.32,-4.04c0.1,-87.8 0.08,-175.6 0.08,-263.4c0,-1.81 -0.23,-3.41 2.26,-4.4c14.35,-5.66 28.95,-9.96 44.72,-10.09c3.98,-0.03 5.09,0.93 5.08,4.77c-0.14,45.5 -0.1,91 -0.1,136.5c0.61,0.01 1.23,0.01 1.84,0.01zm844.77,38.98c0,32.35 -0.05,64.72 0.08,97.07c0.01,3.44 -0.7,4.68 -4.67,4.63c-16.25,-0.23 -32.5,-0.16 -48.76,-0.04c-3.04,0.03 -4.1,-0.63 -4.09,-3.74c0.1,-64.86 0.09,-129.74 0.02,-194.6c0,-2.67 0.6,-3.54 3.63,-3.76c16.38,-1.16 32.77,-1.55 49.19,-1.7c3.95,-0.04 4.7,1.15 4.69,4.61c-0.14,32.51 -0.09,65.02 -0.09,97.53zm6.51,-158.25c-0.01,18.32 -14.74,31.91 -34.63,31.94c-18.1,0.03 -32.74,-14.52 -32.63,-32.38c0.12,-17.44 14.95,-30.48 34.5,-30.35c19,0.13 32.76,13.06 32.75,30.79z" fill="#23307d" id="svg_5"/>
 </g>
</svg>