<?xml version="1.0" encoding="UTF-8" standalone="no"?>
<svg
   xmlns:dc="http://purl.org/dc/elements/1.1/"
   xmlns:cc="http://creativecommons.org/ns#"
   xmlns:rdf="http://www.w3.org/1999/02/22-rdf-syntax-ns#"
   xmlns:svg="http://www.w3.org/2000/svg"
   xmlns="http://www.w3.org/2000/svg"
   viewBox="0 0 1093.7947 853.79468"
   height="853.79468"
   width="1093.7947"
   xml:space="preserve"
   id="svg2"
   version="1.1"><metadata
     id="metadata8"><rdf:RDF><cc:Work
         rdf:about=""><dc:format>image/svg+xml</dc:format><dc:type
           rdf:resource="http://purl.org/dc/dcmitype/StillImage" /></cc:Work></rdf:RDF></metadata><defs
     id="defs6"><clipPath
       id="clipPath18"
       clipPathUnits="userSpaceOnUse"><path
         id="path16"
         d="M 0,640.346 H 820.346 V 0 H 0 Z" /></clipPath></defs><g
     transform="matrix(1.3333333,0,0,-1.3333333,0,853.79467)"
     id="g10"><g
       id="g12"><g
         clip-path="url(#clipPath18)"
         id="g14"><g
           transform="translate(341.5317,362.6976)"
           id="g20"><path
             id="path22"
             style="fill:#ee3339;fill-opacity:1;fill-rule:evenodd;stroke:none"
             d="m 0,0 c 0.406,-3.564 0.088,-18.401 -13.635,-38.779 -14.231,-22.484 8.264,-60.021 53.618,-50.493 9.931,-3.573 20.684,-4.09 27.645,-4.022 6.957,-0.068 17.833,0.377 27.768,3.953 45.351,-9.531 67.727,28.078 53.494,50.562 -13.723,20.378 -14.036,35.215 -13.633,38.777 z" /></g><g
           transform="translate(409.1601,269.6127)"
           id="g24"><path
             id="path26"
             style="fill:#0086c5;fill-opacity:1;fill-rule:evenodd;stroke:none"
             d="m 0,0 c -44.314,1.129 -52.36,21.512 -40.113,25.799 7.11,2.484 16.466,6.644 16.466,6.644 -4.717,23.026 3.085,52.386 23.769,52.359 20.686,0.027 28.226,-30.28 23.538,-52.848 0,0 9.441,-3.403 16.452,-6.155 C 51.629,21.271 44.314,1.129 0,0" /></g><g
           transform="translate(392.4667,285.6771)"
           id="g28"><path
             id="path30"
             style="fill:#ffe133;fill-opacity:1;fill-rule:evenodd;stroke:none"
             d="m 0,0 c -11.768,32.897 -1.446,63.751 16.694,63.69 17.285,-0.12 28.996,-30 16.803,-63.639 0,0 -5.755,1.312 -17.403,1.312 C 7.444,1.363 0,0 0,0" /></g><g
           transform="translate(409.1601,269.2748)"
           id="g32"><path
             id="path34"
             style="fill:#f89c33;fill-opacity:1;fill-rule:evenodd;stroke:none"
             d="m 0,0 c 17.851,0 31.893,3.828 31.893,9.156 0,5.326 -14.042,9.151 -31.893,9.151 -17.853,0 -31.894,-3.825 -31.894,-9.151 C -31.894,3.828 -17.853,0 0,0" /></g><g
           transform="translate(350.1791,346.4598)"
           id="g36"><path
             id="path38"
             style="fill:#0086c5;fill-opacity:1;fill-rule:evenodd;stroke:none"
             d="m 0,0 h 21.431 c 3.394,0 6.147,-2.752 6.147,-6.151 v -14.446 c 0,-3.396 -2.753,-6.148 -6.147,-6.148 H 0 c -3.395,0 -6.145,2.752 -6.145,6.148 V -6.151 C -6.145,-2.752 -3.395,0 0,0" /></g><g
           transform="translate(350.1791,346.4598)"
           id="g40"><path
             id="path42"
             style="fill:none;stroke:#373535;stroke-width:1.07200003;stroke-linecap:butt;stroke-linejoin:miter;stroke-miterlimit:3.86400008;stroke-dasharray:none;stroke-opacity:1"
             d="m 0,0 h 21.431 c 3.394,0 6.147,-2.752 6.147,-6.151 v -14.446 c 0,-3.396 -2.753,-6.148 -6.147,-6.148 H 0 c -3.395,0 -6.145,2.752 -6.145,6.148 V -6.151 C -6.145,-2.752 -3.395,0 0,0 Z" /></g><g
           transform="translate(347.9989,338.3573)"
           id="g44"><path
             id="path46"
             style="fill:#373535;fill-opacity:1;fill-rule:evenodd;stroke:none"
             d="m 0,0 c 0,2.559 2.075,4.636 4.631,4.636 h 16.981 c 2.56,0 4.633,-2.077 4.633,-4.636 v -10.546 c 0,-2.556 -2.073,-4.629 -4.633,-4.629 H 4.631 C 2.075,-15.175 0,-13.102 0,-10.546 Z" /></g><g
           transform="translate(374.2441,330.4554)"
           id="g48"><path
             id="path50"
             style="fill:#ffe133;fill-opacity:1;fill-rule:evenodd;stroke:none"
             d="m 0,0 c -7.666,0.766 -10.335,9.743 -10.984,12.538 h 6.351 C -2.073,12.538 0,10.461 0,7.902 Z" /></g><g
           transform="translate(359.0805,342.993)"
           id="g52"><path
             id="path54"
             style="fill:#ffe133;fill-opacity:1;fill-rule:evenodd;stroke:none"
             d="m 0,0 c -0.497,-2.555 -2.91,-12.173 -11.082,-12.574 v 7.938 c 0,2.559 2.076,4.636 4.632,4.636 z" /></g><g
           transform="translate(446.7099,346.4598)"
           id="g56"><path
             id="path58"
             style="fill:#0086c5;fill-opacity:1;fill-rule:evenodd;stroke:none"
             d="m 0,0 h 21.427 c 3.398,0 6.149,-2.752 6.149,-6.151 v -14.446 c 0,-3.396 -2.751,-6.148 -6.149,-6.148 H 0 c -3.398,0 -6.15,2.752 -6.15,6.148 V -6.151 C -6.15,-2.752 -3.398,0 0,0" /></g><g
           transform="translate(446.7099,346.4598)"
           id="g60"><path
             id="path62"
             style="fill:none;stroke:#373535;stroke-width:1.07200003;stroke-linecap:butt;stroke-linejoin:miter;stroke-miterlimit:3.86400008;stroke-dasharray:none;stroke-opacity:1"
             d="m 0,0 h 21.427 c 3.398,0 6.149,-2.752 6.149,-6.151 v -14.446 c 0,-3.396 -2.751,-6.148 -6.149,-6.148 H 0 c -3.398,0 -6.15,2.752 -6.15,6.148 V -6.151 C -6.15,-2.752 -3.398,0 0,0 Z" /></g><g
           transform="translate(444.5282,338.3573)"
           id="g64"><path
             id="path66"
             style="fill:#373535;fill-opacity:1;fill-rule:evenodd;stroke:none"
             d="m 0,0 c 0,2.559 2.073,4.636 4.63,4.636 h 16.983 c 2.557,0 4.63,-2.077 4.63,-4.636 v -10.546 c 0,-2.556 -2.073,-4.629 -4.63,-4.629 H 4.63 c -2.557,0 -4.63,2.073 -4.63,4.629 z" /></g><g
           transform="translate(470.7714,330.4554)"
           id="g68"><path
             id="path70"
             style="fill:#ffe133;fill-opacity:1;fill-rule:evenodd;stroke:none"
             d="M 0,0 C -7.667,0.766 -10.335,9.743 -10.983,12.538 H -4.63 C -2.073,12.538 0,10.461 0,7.902 Z" /></g><g
           transform="translate(455.6083,342.993)"
           id="g72"><path
             id="path74"
             style="fill:#ffe133;fill-opacity:1;fill-rule:evenodd;stroke:none"
             d="m 0,0 c -0.495,-2.555 -2.907,-12.173 -11.08,-12.574 v 7.938 c 0,2.559 2.073,4.636 4.636,4.636 z" /></g><g
           transform="translate(453.5087,418.3304)"
           id="g76"><path
             id="path78"
             style="fill:#ee3339;fill-opacity:1;fill-rule:evenodd;stroke:none"
             d="m 0,0 c -2.277,7.685 -2.671,11.555 4.362,11.567 h 15.556 c 9.38,0.171 5.51,-7.151 4.595,-14.337 C 23.31,-12.248 23.31,-15.102 23.31,-15.102 23.31,-15.102 0.035,-0.117 0,0" /></g><g
           transform="translate(409.0878,363.413)"
           id="g80"><path
             id="path82"
             style="fill:#f89c33;fill-opacity:1;fill-rule:evenodd;stroke:none"
             d="m 0,0 c -23.083,-0.027 -54.88,-2.011 -75.27,-3.579 -15.663,-1.204 -27.772,10.725 -17.347,22.01 22.172,24.007 76.359,54.357 92.775,54.357 17.446,0 70.611,-30.35 92.782,-54.357 C 103.364,7.146 92.848,-3.579 77.138,-3.579 59.61,-3.579 23.082,-0.027 0,0" /></g><g
           transform="translate(421.5859,309.5487)"
           id="g84"><path
             id="path86"
             style="fill:#373535;fill-opacity:1;fill-rule:evenodd;stroke:none"
             d="M 0,0 C 0,1.71 1.349,3.095 3.013,3.095 4.673,3.095 6.021,1.71 6.021,0 6.021,-1.709 4.673,-3.091 3.013,-3.091 1.349,-3.091 0,-1.709 0,0" /></g><g
           transform="translate(451.5321,420.5419)"
           id="g88"><path
             id="path90"
             style="fill:#373535;fill-opacity:1;fill-rule:evenodd;stroke:none"
             d="m 0,0 c -0.166,0.685 -0.372,1.373 -0.559,2.055 -1.148,4.131 -0.124,8.737 7.018,8.737 h 15.49 c 9.133,0 8.118,-6.288 6.564,-12.399 -1.109,-4.359 -2.022,-9.878 -2.4,-15.093 0,0 12.697,-9.338 19.716,-15.256 22.212,-18.717 7.738,-30.959 -13.425,-29.896 -2.135,0.104 -4.217,0.206 -6.258,0.312 0.147,-6.243 1.989,-17.713 11.735,-30.781 24.587,-29.38 -7.959,-66.288 -53.936,-55.899 -7.578,-2.537 -19.645,-3.699 -26.299,-3.699 -6.66,0 -18.726,1.162 -26.305,3.699 -45.976,-10.389 -78.521,26.519 -53.935,55.899 9.747,13.071 11.589,24.547 11.736,30.788 l -6.258,-0.319 c -21.163,-1.063 -35.639,11.179 -13.426,29.896 32.953,27.774 72.817,48.404 88.188,48.486 C -33.914,16.488 -18.019,10.23 0,0 m -42.323,-55.465 c -23.942,-0.336 -46.692,-2.021 -73.438,-3.746 -16.593,-1.073 -25.909,10.016 -15.451,21.46 15.402,16.85 68.007,51.568 88.858,51.568 20.848,0 73.452,-34.718 88.851,-51.568 10.461,-11.444 1.148,-22.533 -15.451,-21.46 -26.746,1.725 -49.43,3.41 -73.369,3.746 m 29.939,-91.408 c 42.533,-7.205 63.345,28.48 49.697,50.042 -10.495,15.581 -12.994,28.723 -13.397,35.412 -27.886,1.468 -47.064,2.823 -66.27,3.1 -19.212,-0.277 -38.393,-1.623 -66.279,-3.098 -0.4,-6.684 -2.898,-19.827 -13.392,-35.414 -13.652,-21.567 7.164,-57.258 49.709,-50.042 -18.072,6.823 -20.276,18.493 -10.629,22.215 7.03,2.715 16.468,6.163 16.468,6.163 -4.718,23.023 3.435,53.371 24.123,53.344 20.68,0.027 28.835,-30.321 24.118,-53.344 0,0 9.438,-3.448 16.467,-6.163 9.646,-3.722 7.419,-15.392 -10.615,-22.215 M 3.097,-1.799 C 1.303,5.219 1.285,8.13 7.343,8.139 L 20.64,8.126 c 8.844,0.166 5.22,-6.672 4.418,-13.464 -0.486,-4.137 -0.798,-7.418 -0.927,-9.969 -7.097,4.97 -14.199,9.506 -21.034,13.508 m -27.864,-132.228 c 11.524,33.192 0.345,63.685 -17.587,63.625 -17.937,0.06 -29.118,-30.428 -17.59,-63.625 -8.891,-1.721 -14.781,-4.703 -14.781,-8.096 0,-1.085 0.588,-2.119 1.724,-3.091 -14.939,6.568 -16.326,17.273 -8.157,20.17 7.089,2.513 15.729,5.871 15.729,5.871 -4.577,22.348 2.474,52.337 23.075,52.325 20.596,0.012 27.648,-29.977 23.069,-52.325 0,0 8.597,-3.491 15.73,-5.871 8.022,-2.674 6.832,-13.448 -8.043,-20.09 1.046,0.943 1.611,1.959 1.611,3.011 0,3.393 -5.888,6.375 -14.78,8.096 m -1.332,-0.965 c 9.077,-1.453 15.149,-4.097 15.149,-7.131 0,-4.625 -14.056,-8.377 -31.377,-8.377 -17.319,0 -31.435,3.752 -31.435,8.377 0,3.034 6.05,5.684 15.157,7.141 0,0 9.896,1.188 16.251,1.188 6.357,0 16.255,-1.198 16.255,-1.198 m -16.255,2.508 c -9.187,0 -16.646,-1.375 -16.646,-1.375 -10.97,31.994 -0.915,62.135 16.646,62.135 17.568,0 27.627,-30.187 16.643,-62.141 0,0 -7.099,1.381 -16.643,1.381" /></g><g
           transform="translate(174.9301,209.9838)"
           id="g92"><path
             id="path94"
             style="fill:#ee3339;fill-opacity:1;fill-rule:nonzero;stroke:none"
             d="m 0,0 c 9.333,-1.967 32.371,-1.373 32.906,13.729 0,6.066 -7.801,11.71 -15.237,13.333 -9.105,1.993 -14.944,2.026 -24.176,0 -5.678,-2.179 -7.464,3.399 -2.282,5.292 9.83,3.58 48.092,4.353 49.901,-18.625 C 39.521,-8.943 6.114,-7.328 -1.415,-5.826 c -2.977,0.592 -5.241,1.959 -5.241,5.758 v 18.896 c 0,4.477 6.662,4.442 6.662,-0.039 z" /></g><g
           transform="translate(246.8036,236.6283)"
           id="g96"><path
             id="path98"
             style="fill:#ee3339;fill-opacity:1;fill-rule:nonzero;stroke:none"
             d="m 0,0 c -7.445,0 -19.995,-22.721 -23.676,-30.869 -2.204,-4.885 -9.18,-1.408 -6.971,3.476 3.958,8.768 18.895,35.217 30.582,34.983 11.69,0.234 26.624,-26.215 30.586,-34.983 2.206,-4.884 -4.77,-8.361 -6.977,-3.476 C 19.865,-22.721 7.443,0 0,0" /></g><g
           transform="translate(298.9115,210.9916)"
           id="g100"><path
             id="path102"
             style="fill:#ee3339;fill-opacity:1;fill-rule:nonzero;stroke:none"
             d="m 0,0 c 7.443,0 19.993,22.723 23.674,30.869 2.206,4.887 9.18,1.41 6.976,-3.474 C 26.689,18.627 11.751,-7.822 0.064,-7.588 c -11.689,-0.234 -26.625,26.215 -30.585,34.983 -2.207,4.884 4.771,8.361 6.976,3.474 C -19.865,22.723 -7.443,0 0,0" /></g><g
           transform="translate(342.1103,240.308)"
           id="g104"><path
             id="path106"
             style="fill:#ee3339;fill-opacity:1;fill-rule:nonzero;stroke:none"
             d="m 0,0 0.002,-33.115 c 0,-4.948 -7.478,-4.76 -7.478,0.189 L -7.478,0.094 C -7.478,5.207 0,5.24 0,0" /></g><g
           transform="translate(377.8798,210.9916)"
           id="g108"><path
             id="path110"
             style="fill:#ee3339;fill-opacity:1;fill-rule:nonzero;stroke:none"
             d="m 0,0 c 7.443,0 19.995,22.723 23.672,30.869 2.207,4.887 9.182,1.41 6.976,-3.474 C 26.689,18.627 11.755,-7.822 0.062,-7.588 c -11.687,-0.234 -26.623,26.215 -30.583,34.983 -2.204,4.884 4.771,8.361 6.975,3.474 C -19.866,22.723 -7.446,0 0,0" /></g><g
           transform="translate(435.3661,220.4056)"
           id="g112"><path
             id="path114"
             style="fill:#ee3339;fill-opacity:1;fill-rule:nonzero;stroke:none"
             d="m 0,0 c 2.193,-4.623 8.444,-8.402 14.489,-9.723 9.11,-1.994 14.947,-2.021 24.181,0 5.515,1.797 7.457,-3.547 2.233,-5.304 -10.239,-3.444 -47.817,-4.68 -50.033,18.334 1.223,21.929 31.25,21.361 42.705,19.865 5.601,-0.736 4.458,-6.664 -1.393,-5.443 C 24.49,18.756 3.655,19.963 -0.403,6.158 L 20.973,6.139 c 3.331,0 3.331,-6.149 0,-6.149 z" /></g><g
           transform="translate(554.4374,209.9838)"
           id="g116"><path
             id="path118"
             style="fill:#ee3339;fill-opacity:1;fill-rule:nonzero;stroke:none"
             d="m 0,0 c 9.334,-1.967 32.371,-1.373 32.909,13.729 0,6.066 -7.802,11.71 -15.238,13.333 -9.106,1.993 -14.943,2.026 -24.176,0 -5.678,-2.179 -7.465,3.399 -2.282,5.292 9.83,3.58 48.093,4.353 49.898,-18.625 C 39.521,-8.943 6.116,-7.328 -1.415,-5.826 c -2.975,0.592 -5.239,1.959 -5.239,5.758 v 18.896 c 0,4.477 6.663,4.442 6.663,-0.039 z" /></g><g
           transform="translate(626.33,236.6283)"
           id="g120"><path
             id="path122"
             style="fill:#ee3339;fill-opacity:1;fill-rule:nonzero;stroke:none"
             d="m 0,0 c -7.444,0 -19.994,-22.721 -23.674,-30.869 -2.205,-4.885 -9.18,-1.408 -6.973,3.476 3.961,8.768 18.895,35.217 30.584,34.983 11.693,0.234 26.624,-26.215 30.584,-34.983 2.209,-4.884 -4.768,-8.361 -6.976,-3.476 C 19.867,-22.721 7.444,0 0,0" /></g><g
           transform="translate(421.0566,240.308)"
           id="g124"><path
             id="path126"
             style="fill:#ee3339;fill-opacity:1;fill-rule:nonzero;stroke:none"
             d="m 0,0 v -33.115 c 0,-4.948 -7.475,-4.76 -7.475,0.189 L -7.479,0.094 C -7.479,5.207 0,5.24 0,0" /></g><g
           transform="translate(511.0068,217.056)"
           id="g128"><path
             id="path130"
             style="fill:#ee3339;fill-opacity:1;fill-rule:nonzero;stroke:none"
             d="m 0,0 c -4.622,8.467 -9.724,19.693 -13.236,19.936 -8.611,0.037 -4.714,-16.998 -4.873,-30.272 -0.054,-4.676 -7.478,-4.674 -7.478,0.514 -0.008,16.929 -3.626,37.127 12.534,37.127 4.747,0 9.227,-7.08 13.255,-13.756 4.626,-8.465 10.134,-19.721 13.646,-19.961 8.607,-0.041 4.506,16.666 4.665,29.935 0.056,4.678 7.474,4.674 7.478,-0.515 C 25.996,6.08 29.82,-13.781 13.664,-13.781 8.92,-13.781 4.029,-6.68 0,0" /></g></g></g></g></svg>