<svg xmlns="http://www.w3.org/2000/svg" height="853.795" width="1093.795">
    <defs>
        <clipPath id="prefix__a" clipPathUnits="userSpaceOnUse">
            <path d="M0 640.346h820.346V0H0z" />
        </clipPath>
    </defs>
    <g clip-path="url(#prefix__a)" transform="matrix(1.33333 0 0 -1.33333 0 853.795)">
        <path
            d="M341.532 362.698c.406-3.564.088-18.401-13.635-38.78-14.231-22.483 8.264-60.02 53.618-50.492 9.93-3.573 20.684-4.09 27.645-4.022 6.957-.068 17.833.377 27.768 3.953 45.35-9.531 67.727 28.078 53.494 50.562-13.723 20.378-14.036 35.215-13.633 38.777z"
            fill="rgba(51,238,238,0)" fill-rule="evenodd" />
        <path
            d="M409.16 269.613c-44.314 1.129-52.36 21.512-40.113 25.799 7.11 2.484 16.466 6.644 16.466 6.644-4.717 23.026 3.085 52.386 23.77 52.359 20.685.027 28.225-30.28 23.537-52.848 0 0 9.441-3.403 16.452-6.155 11.517-4.528 4.202-24.67-40.112-25.8"
            fill="rgba(0,135,197,0)" fill-rule="evenodd" />
        <path
            d="M392.467 285.677c-11.768 32.897-1.446 63.751 16.694 63.69 17.285-.12 28.996-30 16.803-63.639 0 0-5.755 1.312-17.403 1.312-8.65 0-16.094-1.363-16.094-1.363"
            fill="rgba(255,224,51,0)" fill-rule="evenodd" />
        <path
            d="M409.16 269.275c17.851 0 31.893 3.828 31.893 9.156 0 5.326-14.042 9.15-31.893 9.15-17.853 0-31.894-3.824-31.894-9.15 0-5.328 14.041-9.156 31.894-9.156"
            fill="rgba(248,156,51,0)" fill-rule="evenodd" />
        <path
            d="M350.18 346.46h21.43a6.148 6.148 0 006.147-6.151v-14.446a6.148 6.148 0 00-6.147-6.148h-21.43a6.145 6.145 0 00-6.146 6.148v14.446a6.146 6.146 0 006.145 6.15"
            fill="rgba(0,135,197,0)" fill-rule="evenodd" />
        <path
            d="M350.18 346.46h21.43a6.148 6.148 0 006.147-6.151v-14.446a6.148 6.148 0 00-6.147-6.148h-21.43a6.145 6.145 0 00-6.146 6.148v14.446a6.146 6.146 0 006.145 6.15z"
            fill="none" stroke="rgba(255,255,255,0)" stroke-width="1.072" stroke-miterlimit="3.864" />
        <path
            d="M347.999 338.357a4.635 4.635 0 004.63 4.636h16.982a4.635 4.635 0 004.633-4.636v-10.546a4.63 4.63 0 00-4.633-4.629H352.63a4.631 4.631 0 00-4.631 4.63z"
            fill="#ee3339" fill-rule="evenodd" />
        <path
            d="M374.244 330.455c-7.666.766-10.335 9.743-10.984 12.538h6.351a4.635 4.635 0 004.633-4.636zM359.08 342.993c-.497-2.555-2.91-12.173-11.082-12.574v7.938a4.636 4.636 0 004.632 4.636z"
            fill="rgba(255,224,51,0)" fill-rule="evenodd" />
        <path
            d="M446.71 346.46h21.427a6.148 6.148 0 006.149-6.151v-14.446a6.147 6.147 0 00-6.15-6.148H446.71a6.148 6.148 0 00-6.15 6.148v14.446a6.148 6.148 0 006.15 6.15"
            fill="rgba(0,135,197,0)" fill-rule="evenodd" />
        <path
            d="M446.71 346.46h21.427a6.148 6.148 0 006.149-6.151v-14.446a6.147 6.147 0 00-6.15-6.148H446.71a6.148 6.148 0 00-6.15 6.148v14.446a6.148 6.148 0 006.15 6.15z"
            fill="none" stroke="rgba(55,53,53,0)" stroke-width="1.072" stroke-miterlimit="3.864" />
        <path
            d="M444.528 338.357a4.634 4.634 0 004.63 4.636h16.983a4.634 4.634 0 004.63-4.636v-10.546a4.63 4.63 0 00-4.63-4.629h-16.983a4.63 4.63 0 00-4.63 4.63z"
            fill="#ee3339" fill-rule="evenodd" />
        <path
            d="M470.771 330.455c-7.667.766-10.335 9.743-10.983 12.538h6.353a4.634 4.634 0 004.63-4.636zM455.608 342.993c-.495-2.555-2.907-12.173-11.08-12.574v7.938a4.635 4.635 0 004.636 4.636z"
            fill="rgba(255,224,51,0)" fill-rule="evenodd" />
        <path
            d="M453.509 418.33c-2.277 7.685-2.671 11.555 4.362 11.567h15.556c9.38.171 5.51-7.15 4.595-14.337-1.203-9.478-1.203-12.332-1.203-12.332s-23.275 14.985-23.31 15.102"
            fill="rgba(238,51,57,0)" fill-rule="evenodd" />
        <path
            d="M409.088 363.413c-23.083-.027-54.88-2.011-75.27-3.579-15.663-1.204-27.772 10.725-17.347 22.01 22.172 24.007 76.359 54.357 92.775 54.357 17.446 0 70.61-30.35 92.782-54.357 10.424-11.285-.092-22.01-15.802-22.01-17.528 0-54.056 3.552-77.138 3.579"
            fill="rgba(248,156,51,0)" fill-rule="evenodd" />
        <path
            d="M421.586 309.549c0 1.71 1.349 3.095 3.013 3.095 1.66 0 3.008-1.385 3.008-3.095 0-1.71-1.348-3.091-3.008-3.091-1.664 0-3.013 1.382-3.013 3.09"
            fill="#ee3339" fill-rule="evenodd" />
        <path
            d="M451.532 420.542c-.166.685-.372 1.373-.559 2.055-1.148 4.13-.124 8.737 7.018 8.737h15.49c9.133 0 8.118-6.288 6.564-12.4-1.109-4.358-2.022-9.877-2.4-15.092 0 0 12.697-9.338 19.716-15.256 22.212-18.717 7.738-30.96-13.425-29.896-2.135.104-4.217.206-6.258.312.147-6.243 1.99-17.713 11.735-30.781 24.587-29.38-7.959-66.288-53.936-55.9-7.578-2.536-19.645-3.698-26.299-3.698-6.66 0-18.726 1.162-26.305 3.699-45.976-10.39-78.52 26.519-53.935 55.899 9.747 13.07 11.59 24.547 11.736 30.788l-6.258-.32c-21.163-1.062-35.639 11.18-13.426 29.897 32.953 27.774 72.817 48.404 88.188 48.486 8.44-.042 24.335-6.3 42.354-16.53m-42.323-55.465c-23.942-.336-46.692-2.021-73.438-3.746-16.593-1.073-25.909 10.016-15.45 21.46 15.401 16.85 68.006 51.568 88.857 51.568 20.848 0 73.452-34.718 88.851-51.568 10.461-11.444 1.148-22.533-15.45-21.46-26.747 1.725-49.43 3.41-73.37 3.746m29.94-91.408c42.532-7.205 63.344 28.48 49.696 50.042-10.495 15.58-12.994 28.723-13.397 35.412-27.886 1.468-47.064 2.823-66.27 3.1-19.212-.277-38.393-1.623-66.279-3.098-.4-6.684-2.898-19.827-13.392-35.414-13.652-21.567 7.164-57.258 49.71-50.042-18.073 6.823-20.277 18.493-10.63 22.215 7.03 2.715 16.468 6.163 16.468 6.163-4.718 23.023 3.435 53.37 24.123 53.344 20.68.027 28.835-30.321 24.118-53.344 0 0 9.438-3.448 16.467-6.163 9.646-3.722 7.42-15.392-10.615-22.215m15.481 145.074c-1.794 7.018-1.812 9.929 4.246 9.938l13.297-.013c8.844.166 5.22-6.672 4.418-13.464-.486-4.137-.798-7.418-.927-9.97a309.512 309.512 0 01-21.034 13.509m-27.864-132.228c11.524 33.192.345 63.685-17.587 63.625-17.937.06-29.118-30.428-17.59-63.625-8.89-1.721-14.78-4.703-14.78-8.096 0-1.085.587-2.12 1.723-3.091-14.939 6.568-16.326 17.273-8.157 20.17 7.09 2.513 15.73 5.87 15.73 5.87-4.578 22.349 2.473 52.338 23.074 52.326 20.596.012 27.648-29.977 23.07-52.325 0 0 8.596-3.491 15.73-5.871 8.021-2.674 6.831-13.448-8.044-20.09 1.046.943 1.611 1.959 1.611 3.01 0 3.394-5.888 6.376-14.78 8.097m-1.332-.965c9.077-1.453 15.15-4.097 15.15-7.131 0-4.625-14.057-8.377-31.378-8.377-17.319 0-31.435 3.752-31.435 8.377 0 3.034 6.05 5.684 15.157 7.14 0 0 9.896 1.189 16.251 1.189 6.357 0 16.255-1.198 16.255-1.198m-16.255 2.508c-9.187 0-16.646-1.375-16.646-1.375-10.97 31.994-.915 62.135 16.646 62.135 17.568 0 27.627-30.187 16.643-62.141 0 0-7.099 1.38-16.643 1.38"
            fill="#ee3339" fill-rule="evenodd" />
        <path
            d="M174.93 209.984c9.333-1.967 32.371-1.373 32.906 13.729 0 6.066-7.8 11.71-15.237 13.333-9.105 1.993-14.944 2.026-24.176 0-5.678-2.18-7.464 3.399-2.282 5.292 9.83 3.58 48.092 4.353 49.901-18.625-1.59-22.672-34.998-21.057-42.527-19.555-2.977.592-5.24 1.959-5.24 5.758v18.896c0 4.477 6.661 4.442 6.661-.04zM246.804 236.628c-7.445 0-19.995-22.72-23.676-30.869-2.204-4.885-9.18-1.408-6.971 3.476 3.958 8.768 18.895 35.217 30.582 34.983 11.69.234 26.624-26.215 30.586-34.983 2.206-4.884-4.77-8.36-6.977-3.476-3.68 8.148-16.101 30.87-23.544 30.87M298.911 210.992c7.443 0 19.993 22.723 23.674 30.869 2.206 4.887 9.18 1.41 6.976-3.474-3.96-8.768-18.899-35.217-30.586-34.983-11.689-.234-26.625 26.215-30.585 34.983-2.207 4.884 4.771 8.36 6.976 3.474 3.68-8.146 16.102-30.87 23.545-30.87M342.11 240.308l.002-33.115c0-4.948-7.478-4.76-7.478.189l-.002 33.02c0 5.113 7.478 5.146 7.478-.094M377.88 210.992c7.443 0 19.995 22.723 23.672 30.869 2.207 4.887 9.182 1.41 6.976-3.474-3.96-8.768-18.893-35.217-30.586-34.983-11.687-.234-26.623 26.215-30.583 34.983-2.204 4.884 4.77 8.36 6.975 3.474 3.68-8.146 16.1-30.87 23.546-30.87M435.366 220.406c2.193-4.623 8.444-8.402 14.49-9.723 9.11-1.994 14.946-2.021 24.18 0 5.515 1.797 7.457-3.547 2.233-5.304-10.239-3.444-47.817-4.68-50.033 18.334 1.223 21.929 31.25 21.36 42.705 19.865 5.601-.736 4.458-6.664-1.393-5.443-7.692 1.027-28.527 2.234-32.585-11.571l21.376-.02c3.331 0 3.331-6.148 0-6.148zM554.437 209.984c9.334-1.967 32.371-1.373 32.91 13.729 0 6.066-7.803 11.71-15.239 13.333-9.106 1.993-14.943 2.026-24.176 0-5.678-2.18-7.465 3.399-2.282 5.292 9.83 3.58 48.093 4.353 49.898-18.625-1.59-22.672-34.995-21.057-42.526-19.555-2.975.592-5.239 1.959-5.239 5.758v18.896c0 4.477 6.663 4.442 6.663-.04zM626.33 236.628c-7.444 0-19.994-22.72-23.674-30.869-2.205-4.885-9.18-1.408-6.973 3.476 3.961 8.768 18.895 35.217 30.584 34.983 11.693.234 26.624-26.215 30.584-34.983 2.209-4.884-4.768-8.36-6.976-3.476-3.678 8.148-16.101 30.87-23.545 30.87M421.057 240.308v-33.115c0-4.948-7.475-4.76-7.475.189l-.004 33.02c0 5.113 7.479 5.146 7.479-.094M511.007 217.056c-4.622 8.467-9.724 19.693-13.236 19.936-8.611.037-4.714-16.998-4.873-30.272-.054-4.676-7.478-4.674-7.478.514-.008 16.929-3.626 37.127 12.534 37.127 4.747 0 9.227-7.08 13.255-13.756 4.626-8.465 10.134-19.721 13.646-19.961 8.607-.041 4.506 16.666 4.665 29.935.056 4.678 7.474 4.674 7.478-.515.005-16.928 3.829-36.789-12.327-36.789-4.744 0-9.635 7.101-13.664 13.781"
            fill="#ee3339" />
    </g>
</svg>