<?xml version="1.0" standalone="no"?>
<!DOCTYPE svg PUBLIC "-//W3C//DTD SVG 20010904//EN"
 "http://www.w3.org/TR/2001/REC-SVG-20010904/DTD/svg10.dtd">
<svg version="1.0" xmlns="http://www.w3.org/2000/svg"
 width="2000.000000pt" height="1600.000000pt" viewBox="0 0 2000.000000 1600.000000"
 preserveAspectRatio="xMidYMid meet">

<g transform="translate(0.000000,1600.000000) scale(0.100000,-0.100000)"
fill="#000000" stroke="none">
<path d="M5445 11625 c-11 -2 -81 -9 -155 -15 -164 -15 -264 -34 -555 -105
-120 -30 -297 -85 -375 -117 -136 -56 -498 -238 -598 -300 -122 -76 -299 -205
-372 -271 -19 -18 -60 -52 -90 -75 -82 -65 -311 -292 -377 -374 -32 -40 -77
-95 -101 -122 -98 -111 -299 -437 -397 -641 -224 -467 -338 -908 -365 -1405
-5 -91 -9 -975 -9 -1966 -1 -1744 0 -1801 18 -1818 10 -9 45 -21 77 -26 75
-13 2935 -13 3356 0 169 5 342 13 385 19 43 6 130 15 193 21 311 30 779 155
1025 275 85 41 204 95 210 95 3 0 32 17 63 38 32 21 66 41 76 45 83 32 386
242 536 372 58 50 122 104 143 120 58 44 314 326 379 417 18 26 58 80 89 120
30 40 58 81 62 91 4 9 24 43 44 75 301 459 506 1040 559 1582 18 184 15 643
-6 780 -57 387 -133 660 -288 1030 -31 74 -66 151 -77 170 -12 19 -48 85 -80
145 -55 104 -214 347 -236 361 -5 3 -21 24 -35 46 -27 42 -70 97 -185 233
-129 154 -372 376 -557 508 -41 28 -110 78 -154 109 -44 31 -146 91 -226 132
-81 41 -160 81 -177 90 -35 18 -269 120 -323 140 -142 54 -415 130 -557 156
-268 50 -384 62 -645 65 -140 2 -264 2 -275 0z m1067 -3102 c92 -92 168 -175
168 -184 0 -23 -279 -308 -1130 -1157 -388 -387 -715 -705 -727 -708 -18 -5
-41 11 -115 79 -180 166 -998 995 -998 1012 0 21 331 355 352 355 7 0 173
-160 368 -356 195 -195 363 -360 374 -366 16 -9 114 85 770 741 413 413 756
751 761 751 5 0 84 -75 177 -167z"/>
<path d="M10920 10506 c-56 -12 -148 -57 -209 -101 -19 -14 -42 -25 -52 -25
-11 0 -19 -7 -19 -15 0 -8 -9 -15 -21 -15 -16 0 -19 4 -14 20 3 11 3 25 -2 32
-4 7 -13 29 -18 48 -10 32 -15 36 -55 42 -56 8 -327 10 -357 2 -14 -4 -26 -19
-33 -40 -9 -25 -10 -362 -5 -1262 6 -1045 9 -1229 21 -1242 12 -12 52 -16 208
-18 168 -3 196 -1 210 13 14 15 16 59 16 400 0 211 4 395 9 408 20 51 46 44
174 -43 99 -67 171 -84 337 -77 188 7 277 45 409 171 86 84 135 171 201 366
l43 125 4 230 c5 251 -4 345 -49 491 -49 164 -178 337 -307 414 -68 40 -86 48
-189 76 -64 17 -225 17 -302 0z m165 -375 c148 -68 207 -206 222 -512 6 -122
-17 -329 -41 -379 -7 -14 -19 -44 -26 -68 -19 -62 -80 -127 -138 -147 -26 -9
-90 -19 -142 -22 -166 -9 -273 33 -335 132 l-30 48 -3 360 c-4 450 3 481 116
559 55 38 91 45 232 47 82 0 114 -3 145 -18z"/>
<path d="M12545 10505 c-182 -42 -299 -102 -403 -207 -81 -81 -124 -148 -142
-220 -21 -81 -12 -94 72 -108 70 -12 296 -9 343 5 12 4 34 33 54 70 61 120
122 151 277 143 80 -5 97 -9 150 -39 49 -29 64 -44 88 -92 24 -47 30 -74 34
-150 4 -82 2 -95 -16 -118 l-21 -26 -220 -7 c-174 -5 -236 -11 -298 -27 -43
-12 -94 -25 -113 -29 -87 -22 -170 -70 -243 -143 -78 -77 -114 -139 -142 -245
-28 -111 -15 -272 29 -357 9 -16 16 -35 16 -41 0 -19 72 -101 136 -155 99 -85
169 -113 313 -129 168 -18 328 20 443 106 98 73 121 72 163 -9 17 -32 39 -64
50 -70 13 -8 83 -12 212 -12 222 0 229 2 212 70 -24 100 -31 234 -38 715 -10
650 -15 676 -148 852 -76 100 -192 172 -340 212 -79 21 -114 24 -250 24 -99 1
-180 -4 -218 -13z m435 -1008 c38 -19 50 -74 44 -202 -3 -60 -10 -125 -16
-144 -16 -51 -71 -105 -140 -137 -59 -27 -71 -29 -188 -29 -119 0 -127 1 -177
29 -46 25 -55 36 -74 85 -24 65 -22 159 6 249 14 45 23 58 63 83 26 16 71 37
101 46 104 30 337 43 381 20z"/>
<path d="M14340 10511 c-71 -9 -185 -51 -241 -89 -69 -48 -183 -170 -228 -246
-91 -154 -141 -361 -141 -585 0 -139 28 -352 55 -415 7 -17 23 -56 35 -86 71
-180 235 -356 390 -419 123 -50 282 -65 376 -36 27 9 65 21 84 27 19 6 62 28
94 50 51 35 115 68 130 68 2 0 12 -7 20 -16 47 -46 -14 -265 -113 -404 -17
-25 -44 -63 -59 -85 -15 -22 -56 -78 -92 -125 -86 -111 -130 -178 -130 -195 0
-36 189 -31 310 8 103 33 256 107 308 149 56 45 144 163 188 252 23 45 45 114
61 191 l26 120 1 875 c1 481 -2 887 -6 901 -4 15 -16 31 -25 35 -23 11 -362
14 -390 3 -13 -5 -25 -20 -28 -36 -19 -89 -44 -93 -156 -28 -122 72 -176 88
-304 91 -60 1 -135 -1 -165 -5z m481 -417 c35 -21 71 -53 87 -77 l27 -41 0
-400 c0 -460 4 -437 -95 -507 -99 -69 -254 -89 -382 -49 -53 16 -74 30 -115
72 -106 113 -133 208 -133 479 0 151 4 200 19 261 35 136 93 225 180 276 40
23 60 28 151 32 141 7 189 -2 261 -46z"/>
<path d="M16330 10510 c-214 -37 -397 -149 -524 -320 -46 -62 -67 -104 -102
-205 -50 -143 -56 -189 -55 -385 1 -221 10 -287 63 -446 32 -96 51 -135 91
-190 95 -126 195 -206 350 -279 124 -59 351 -81 522 -51 144 26 295 99 418
203 84 71 192 269 243 444 25 89 26 97 22 308 l-5 216 -43 130 c-52 159 -100
237 -219 356 -65 66 -104 96 -159 123 -103 49 -176 76 -255 91 -75 14 -278 17
-347 5z m346 -401 c59 -30 75 -45 111 -100 82 -123 113 -241 113 -429 0 -248
-40 -382 -148 -489 -75 -75 -145 -97 -284 -88 -148 10 -187 28 -260 118 -54
66 -75 122 -99 261 -48 279 7 553 137 683 66 66 127 85 270 82 83 -2 97 -5
160 -38z"/>
<path d="M17547 8171 c-53 -8 -66 -21 -68 -66 0 -16 -1 -592 0 -1279 0 -879 3
-1252 11 -1260 21 -21 425 -24 445 -4 21 21 24 188 24 1253 0 1144 -4 1324
-28 1348 -14 14 -303 20 -384 8z"/>
<path d="M13975 8143 c-26 -27 -176 -248 -244 -362 -18 -30 -35 -67 -38 -83
l-6 -30 173 4 173 3 31 39 c17 21 65 76 106 121 117 127 219 248 241 285 16
26 18 35 7 41 -7 5 -104 9 -214 9 l-201 0 -28 -27z"/>
<path d="M16765 8096 c-85 -37 -137 -118 -138 -215 -1 -135 105 -241 240 -241
123 0 225 65 264 169 18 48 19 61 8 105 -6 28 -16 60 -22 71 -17 35 -81 96
-116 111 -43 18 -195 18 -236 0z"/>
<path d="M13670 7405 c-80 -18 -270 -111 -351 -172 -70 -53 -124 -122 -186
-238 -58 -110 -88 -198 -108 -323 -37 -220 2 -540 85 -703 53 -103 159 -238
219 -278 20 -14 54 -37 76 -51 63 -42 102 -60 204 -93 91 -29 105 -31 261 -31
147 -1 172 2 228 22 34 12 69 22 77 22 9 0 44 14 78 31 207 104 359 276 421
474 63 205 81 339 66 480 -37 336 -166 576 -402 748 -21 15 -42 27 -47 27 -4
0 -41 15 -82 34 -100 46 -158 57 -329 62 -105 3 -163 0 -210 -11z m336 -381
c80 -30 120 -64 179 -154 74 -113 80 -143 80 -400 0 -205 -2 -231 -22 -296
-13 -39 -40 -97 -62 -130 -80 -123 -136 -149 -316 -148 -99 0 -128 4 -166 21
-114 52 -169 143 -199 328 -29 173 -30 224 -10 375 19 146 35 197 87 277 42
64 90 101 168 129 86 31 174 31 261 -2z"/>
<path d="M10973 7396 c-96 -19 -179 -57 -241 -108 -31 -27 -64 -48 -74 -48
-10 0 -18 -4 -18 -10 0 -5 -9 -10 -20 -10 -11 0 -20 5 -20 10 0 6 5 10 11 10
8 0 8 4 1 13 -5 6 -13 36 -17 65 -6 44 -11 55 -32 63 -13 5 -107 9 -207 9
-164 0 -185 -2 -199 -18 -16 -17 -17 -94 -17 -904 0 -794 2 -887 16 -899 12
-9 68 -13 224 -13 114 -1 212 3 217 7 4 5 10 304 13 665 l5 657 28 42 c57 83
136 117 272 117 197 0 272 -56 300 -224 9 -52 13 -294 14 -798 l1 -452 28 -12
c31 -12 342 -17 385 -5 17 5 32 18 38 34 6 16 10 248 10 617 1 686 -1 670 82
752 76 75 148 97 278 85 150 -14 207 -53 239 -161 19 -61 20 -102 23 -682 1
-462 5 -620 14 -629 31 -31 389 -34 430 -4 17 13 18 46 18 642 0 708 -1 720
-72 903 -50 129 -153 231 -272 270 -84 28 -275 38 -377 21 -125 -22 -259 -95
-327 -176 -15 -18 -43 -39 -62 -45 -47 -15 -82 4 -137 77 -35 46 -59 66 -118
96 -41 20 -99 42 -129 47 -71 13 -231 11 -308 -4z"/>
<path d="M14848 7380 c-13 -8 -18 -24 -18 -57 0 -42 24 -156 38 -178 10 -16
50 -131 86 -250 18 -60 52 -164 76 -230 87 -248 122 -352 146 -435 14 -47 56
-173 93 -280 38 -107 72 -213 76 -235 4 -22 19 -65 33 -95 26 -54 28 -55 77
-62 63 -8 340 -8 380 1 20 4 32 14 37 31 7 24 84 252 106 315 24 67 94 283
107 330 7 28 32 102 55 165 23 63 48 135 55 160 7 25 31 97 54 160 22 63 40
123 41 133 0 10 8 34 19 55 10 20 23 60 30 87 6 28 20 70 30 95 27 64 81 236
81 260 0 34 -32 40 -228 40 -176 0 -191 -1 -216 -21 -14 -11 -26 -26 -26 -32
0 -12 -24 -101 -84 -317 -18 -63 -45 -162 -60 -220 -15 -58 -38 -143 -51 -190
-40 -143 -64 -232 -80 -299 -14 -59 -55 -131 -74 -131 -28 0 -63 85 -103 255
-5 22 -31 114 -57 205 -27 91 -52 181 -56 200 -3 19 -17 73 -30 120 -42 149
-56 204 -66 245 -18 78 -44 146 -62 163 -16 15 -46 17 -206 20 -118 1 -192 -2
-203 -8z"/>
<path d="M16656 7368 c-14 -20 -16 -122 -16 -904 0 -808 1 -883 17 -895 25
-21 440 -20 453 1 14 21 13 1775 0 1801 -10 18 -23 19 -225 19 -210 0 -214 0
-229 -22z"/>
</g>
</svg>
